# xmcd CD database file
#
# Track frame offsets:
#	150
#	18077
#	52450
#	70060
#	90220
#	104832
#	118610
#	146890
#	166215
#	185635
#	197380
#	213452
#	231177
#	249052
#
# Disc length: 3617 seconds
#
# Revision: 0
# Processed by: cddbd v1.5.1PL0 Copyright (c) Steve Scherf et al.
# Submitted via: CDex 1.51
#
DISCID=c20e1f0e
DTITLE=The Flying Pisanos - Ensemble
DYEAR=2000
DGENRE=Jazz
TTITLE0=I Get A Kick Out of You
TTITLE1=Lover Man
TTITLE2=Spring Can Really Hang You Up the Most - It Might as well be Spring
TTITLE3=I'm Glad There is You
TTITLE4=You'd Be So Nice to Come Home to
TTITLE5=I Thought About YOu
TTITLE6=Black Coffee
TTITLE7=For All We Know
TTITLE8=My One and Only Love
TTITLE9=Everything I Love
TTITLE10=Some Other Time
TTITLE11=Squeeze Me
TTITLE12=Cheek to Cheek
TTITLE13=Invitation
EXTD=YEAR: 2000
EXTT0=
EXTT1=
EXTT2=
EXTT3=
EXTT4=
EXTT5=
EXTT6=
EXTT7=
EXTT8=
EXTT9=
EXTT10=
EXTT11=
EXTT12=
EXTT13=
PLAYORDER=
